<svg width="58" height="23" viewBox="0 0 58 23" fill="none" xmlns="http://www.w3.org/2000/svg">
<path d="M10.624 22.692C15.264 22.692 16.48 18.756 16.48 13.988C16.48 8.484 13.92 6.372 10.784 6.372C7.584 6.372 6.4 9.892 5.728 9.892C4.992 9.892 6.112 8.516 6.432 7.908C6.656 7.204 7.264 5.604 7.264 3.428C7.264 2.276 6.688 0.0999985 3.936 0.0999985C1.152 0.0999985 0.48 1.892 0.48 9.892C0.48 20.708 0.576 22.5 4.32 22.5C6.336 22.5 5.152 18.436 5.536 18.436C6.144 18.436 6.976 22.692 10.624 22.692ZM7.36 14.436C7.36 12.964 7.68 12.196 8.48 12.196C9.088 12.196 9.472 12.964 9.472 14.468C9.472 15.94 9.28 17.188 8.48 17.188C7.456 17.188 7.36 15.652 7.36 14.436ZM24.9093 22.692C29.0373 22.692 31.2453 21.156 31.2453 18.66C31.2453 16.772 30.5733 15.844 29.6133 15.844C28.4613 15.844 27.7253 17.188 25.4853 17.188C23.2453 17.188 22.3493 15.588 22.3493 14.948C22.3493 14.692 22.4773 14.564 22.7013 14.564C23.2133 14.564 23.6933 15.46 25.9653 15.46C30.5093 15.46 31.3093 13.412 31.3093 11.268C31.3093 8.388 29.3253 6.308 24.9093 6.308C20.9733 6.308 17.0693 8.036 17.0693 14.596C17.0693 18.948 19.2133 22.692 24.9093 22.692ZM23.8533 12.612C23.8533 11.556 24.2373 11.076 24.8453 11.076C25.5173 11.076 25.8373 11.524 25.8373 12.548C25.8373 13.732 25.4853 13.988 24.8773 13.988C24.2373 13.988 23.8533 13.764 23.8533 12.612ZM35.6533 22.5C37.8933 22.5 38.9813 21.38 38.9813 18.884C38.9813 16.836 38.8533 15.012 38.8533 14.148C38.8533 12.804 39.2053 12.196 39.9413 12.196C40.7093 12.196 40.8693 12.74 40.8693 14.724C40.8693 16.1 40.7093 17.86 40.7093 19.012C40.7093 22.244 42.5013 22.5 44.1973 22.5C46.5973 22.5 47.4613 21.028 47.4613 14.468C47.4613 8.1 45.7013 6.34 42.5653 6.34C38.6613 6.34 37.8293 10.404 36.7413 10.884C36.2613 10.916 37.2533 9.828 37.2533 8.74C37.2533 7.588 37.1573 6.5 35.7812 6.5C32.8372 6.5 32.2613 7.652 32.2613 14.628C32.2613 20.58 33.0293 22.5 35.6533 22.5ZM53.6975 22.5C57.3455 22.5 57.7935 21.38 57.7935 18.628C57.7935 16.996 57.2175 16.676 56.4495 16.676C55.5215 16.676 55.0095 15.78 55.0095 13.796C55.0095 11.14 54.5615 11.204 55.9375 11.108C56.4175 10.98 57.7615 11.3 57.7615 9.028C57.7615 6.98 57.1535 6.948 56.6095 6.948C55.5215 6.948 54.9455 7.396 54.9455 6.372C54.9455 4.132 54.2415 3.524 51.8415 3.524C49.3775 3.524 48.4175 5.348 48.4175 13.764C48.4175 21.124 49.4415 22.5 53.6975 22.5Z" fill="#FFFDF8"/>
</svg>
