<svg width="250" height="209" viewBox="0 0 250 209" fill="none" xmlns="http://www.w3.org/2000/svg">
<path fill-rule="evenodd" clip-rule="evenodd" d="M148.518 0.888583C182.435 -3.40453 219.968 7.79674 239.521 35.841C258.163 62.578 248.34 97.9633 237.676 128.763C228.719 154.629 210.617 174.429 186.839 187.989C160.159 203.203 131.082 213.877 101.253 206.56C60.4906 196.561 5.52275 183.886 0.329727 142.237C-4.84598 100.727 52.1764 84.5954 82.4459 55.723C104.235 34.9396 118.645 4.66985 148.518 0.888583Z" fill="#80FBD2"/>
<path fill-rule="evenodd" clip-rule="evenodd" d="M48.275 49.1566C48.275 37.069 58.0687 27.2754 70.1563 27.2754H88.4375C90.4258 27.2754 92.0375 28.8872 92.0375 30.8754C92.0375 32.8636 90.4258 34.4754 88.4375 34.4754H70.1563C62.0451 34.4754 55.475 41.0455 55.475 49.1566V67.4379C55.475 69.4261 53.8632 71.0379 51.875 71.0379C49.8868 71.0379 48.275 69.4261 48.275 67.4379V49.1566Z" fill="#4B09F5"/>
<path fill-rule="evenodd" clip-rule="evenodd" d="M51.875 136.963C53.8632 136.963 55.475 138.575 55.475 140.563V158.844C55.475 166.955 62.0451 173.525 70.1563 173.525H88.4375C90.4258 173.525 92.0375 175.137 92.0375 177.125C92.0375 179.114 90.4258 180.725 88.4375 180.725H70.1563C58.0687 180.725 48.275 170.932 48.275 158.844V140.563C48.275 138.575 49.8868 136.963 51.875 136.963Z" fill="#4B09F5"/>
<path fill-rule="evenodd" clip-rule="evenodd" d="M198.125 136.963C200.113 136.963 201.725 138.575 201.725 140.563V158.844C201.725 170.932 191.931 180.725 179.844 180.725H161.563C159.574 180.725 157.963 179.114 157.963 177.125C157.963 175.137 159.574 173.525 161.563 173.525H179.844C187.955 173.525 194.525 166.955 194.525 158.844V140.563C194.525 138.575 196.137 136.963 198.125 136.963Z" fill="#4B09F5"/>
<path fill-rule="evenodd" clip-rule="evenodd" d="M157.963 30.8754C157.963 28.8872 159.574 27.2754 161.563 27.2754H179.844C191.931 27.2754 201.725 37.069 201.725 49.1566V67.4379C201.725 69.4261 200.113 71.0379 198.125 71.0379C196.137 71.0379 194.525 69.4261 194.525 67.4379V49.1566C194.525 41.0455 187.955 34.4754 179.844 34.4754H161.563C159.574 34.4754 157.963 32.8636 157.963 30.8754Z" fill="#4B09F5"/>
<path d="M125 93.5242C137.38 93.5242 147.416 83.5571 147.416 71.2621C147.416 58.9671 137.38 49 125 49C112.62 49 102.584 58.9671 102.584 71.2621C102.584 83.5571 112.62 93.5242 125 93.5242Z" fill="#4B09F5"/>
<path d="M125 102.948C147.628 102.948 166 121.194 166 143.667C166 152.127 159.084 159 150.561 159H99.4395C90.921 159 84.0001 152.132 84.0001 143.667C84.0001 121.194 102.372 102.948 125 102.948Z" fill="#4B09F5"/>
</svg>
