<svg width="72" height="72" viewBox="0 0 72 72" fill="none" xmlns="http://www.w3.org/2000/svg">
<circle cx="36" cy="36" r="36" fill="#80FBD2"/>
<path fill-rule="evenodd" clip-rule="evenodd" d="M35.9999 20.713C29.7326 20.713 24.652 25.7936 24.652 32.0609V38.0832L22.853 39.8809L22.8515 39.8824C21.9034 40.8325 21.3705 42.1196 21.3694 43.4618L22.8694 43.463H21.3694C21.3694 46.1524 23.5496 48.3326 26.239 48.3326H30.4524C30.5997 49.5705 31.1583 50.7307 32.0487 51.6212C33.0958 52.6683 34.516 53.2566 35.9969 53.2566H36.0002C37.4813 53.257 38.9019 52.6692 39.9496 51.6223C40.8407 50.7319 41.4 49.571 41.5477 48.3326H45.7607C48.4501 48.3326 50.6303 46.1524 50.6303 43.463H49.1303L50.6303 43.4618C50.6293 42.1196 50.0963 40.8325 49.1482 39.8824L47.3477 38.0832V32.0609C47.3477 25.7936 42.2671 20.713 35.9999 20.713Z" fill="#4B09F5"/>
<path fill-rule="evenodd" clip-rule="evenodd" d="M54.7927 19.4114C55.2522 20.1007 55.0659 21.032 54.3766 21.4915L50.8752 23.8258C50.1859 24.2853 49.2546 24.099 48.795 23.4097C48.3355 22.7205 48.5218 21.7892 49.2111 21.3296L52.7125 18.9954C53.4018 18.5358 54.3331 18.7221 54.7927 19.4114Z" fill="#4B09F5"/>
<path fill-rule="evenodd" clip-rule="evenodd" d="M50.2938 30.7478C50.2938 29.9194 50.9654 29.2478 51.7938 29.2478H55.258C56.0864 29.2478 56.758 29.9194 56.758 30.7478C56.758 31.5762 56.0864 32.2478 55.258 32.2478H51.7938C50.9654 32.2478 50.2938 31.5762 50.2938 30.7478Z" fill="#4B09F5"/>
<path fill-rule="evenodd" clip-rule="evenodd" d="M17.2073 19.4114C17.6668 18.7221 18.5981 18.5358 19.2874 18.9954L22.7889 21.3296C23.4782 21.7892 23.6644 22.7205 23.2049 23.4097C22.7454 24.099 21.8141 24.2853 21.1248 23.8258L17.6233 21.4915C16.934 21.032 16.7478 20.1007 17.2073 19.4114Z" fill="#4B09F5"/>
<path fill-rule="evenodd" clip-rule="evenodd" d="M15.2419 30.7478C15.2419 29.9194 15.9135 29.2478 16.7419 29.2478H20.2061C21.0345 29.2478 21.7061 29.9194 21.7061 30.7478C21.7061 31.5762 21.0345 32.2478 20.2061 32.2478H16.7419C15.9135 32.2478 15.2419 31.5762 15.2419 30.7478Z" fill="#4B09F5"/>
</svg>
